<svg width="564" height="586" viewBox="0 0 564 586" fill="none" xmlns="http://www.w3.org/2000/svg">
<path d="M0 316.822C0 455.561 126.051 585.5 259.605 585.5L258.605 352.542C240.736 343.967 233.6 335.995 225.592 316.822H0Z" fill="#5B88A5"/>
<path d="M563.729 316.822C563.729 455.561 437.678 585.5 304.124 585.5L305.124 352.542C322.993 343.967 330.129 335.995 338.137 316.822H563.729Z" fill="#243A69"/>
<path d="M563.729 268.678C563.729 129.939 437.678 3.05176e-05 304.124 3.05176e-05L305.124 232.958C322.993 241.533 330.129 249.505 338.137 268.678H563.729Z" fill="#5B88A5"/>
<path d="M0 268.678C0 129.939 126.051 3.05176e-05 259.605 3.05176e-05L258.605 232.958C240.736 241.533 233.6 249.505 225.592 268.678H0Z" fill="#243A69"/>
<path d="M514.72 514.059H365.138C357.132 514.059 350.643 507.57 350.643 499.564L359.146 454.526V354.283C359.146 351.163 360.303 348.154 362.392 345.837C364.784 343.185 368.187 341.671 371.758 341.671H505.678C509.212 341.671 512.595 343.106 515.05 345.648C517.398 348.078 518.711 351.325 518.711 354.704V454.526L529.215 499.564C529.215 507.57 522.725 514.059 514.72 514.059Z" fill="#243A69"/>
<path d="M529.215 499.564L518.711 454.526M529.215 499.564H456.185M529.215 499.564C529.215 507.57 522.725 514.059 514.72 514.059H365.138C357.132 514.059 350.643 507.57 350.643 499.564M518.711 454.526V354.704C518.711 351.325 517.398 348.078 515.05 345.648C512.595 343.106 509.212 341.671 505.678 341.671H371.758C368.187 341.671 364.784 343.185 362.392 345.837C360.303 348.154 359.146 351.163 359.146 354.283V454.526M518.711 454.526H504.705M359.146 454.526L350.643 499.564M359.146 454.526H372.652M350.643 499.564H418.67M372.652 454.526L370.491 469.539M372.652 454.526H395.661M504.705 454.526L508.002 469.539M504.705 454.526H480.195M438.678 484.552V454.526M438.678 484.552H422.172M438.678 484.552H451.183M438.678 454.526H459.437M438.678 454.526H418.67M370.491 469.539L369.524 476.257C369.282 477.937 369.637 479.649 370.526 481.094C371.847 483.243 374.188 484.552 376.71 484.552H388.658M370.491 469.539H508.002M508.002 469.539L508.851 473.407C509.397 475.893 508.886 478.493 507.441 480.588C505.728 483.07 502.905 484.552 499.889 484.552H488.699M480.195 454.526L488.699 484.552M480.195 454.526H459.437M488.699 484.552H463.688M459.437 454.526L463.688 484.552M463.688 484.552H451.183M418.67 454.526L413.668 484.552M418.67 454.526H395.661M413.668 484.552H388.658M413.668 484.552H422.172M395.661 454.526L388.658 484.552M422.172 484.552L418.67 499.564M418.67 499.564H456.185M451.183 484.552L456.185 499.564M372.652 430.128V367.271C372.652 364.437 373.649 361.626 375.399 359.396C377.799 356.34 381.424 354.613 385.31 354.613H489.945C493.647 354.613 497.214 356.004 499.938 358.51C502.976 361.305 504.705 365.245 504.705 369.373V429.687C504.705 432.956 503.233 436.051 500.696 438.114C498.76 439.689 496.34 440.548 493.844 440.548H383.072C380.546 440.548 378.107 439.631 376.207 437.967C373.947 435.989 372.652 433.131 372.652 430.128Z" stroke="#F4F4F2" stroke-width="5"/>
<path d="M66.5271 352.025H191.078L224.727 418.288H34.5142L46.7691 392.922L66.5271 352.025Z" fill="#5B88A5" stroke="#F4F4F2" stroke-width="5"/>
<path d="M20.1343 438.185L34.6104 419.457C35.1803 418.72 36.0604 418.29 36.9923 418.292L222.111 418.802C223.044 418.804 223.922 419.241 224.488 419.982L237.982 437.672C238.381 438.195 238.597 438.821 238.597 439.478V481.963C238.597 489.728 231.094 489.728 231.094 493.352V515.095C231.094 520.789 226.092 524.931 220.089 524.931H200.081C195.579 524.931 192.578 521.307 192.578 515.095V503.08C192.578 501.423 191.235 500.082 189.578 500.082H127.051H68.0263C66.3695 500.082 65.0263 501.425 65.0263 503.082V513.672C65.0263 514.573 64.6218 515.425 63.9245 515.995L56.3508 522.183C55.8151 522.621 55.1445 522.86 54.4527 522.86H36.9991C36.0634 522.86 35.1813 522.424 34.6138 521.68L28.626 513.83C28.2273 513.307 28.0113 512.668 28.0113 512.011V493.831C28.0113 493.184 27.8022 492.554 27.4151 492.036L20.1039 482.244C19.7169 481.726 19.5078 481.096 19.5078 480.449V440.02C19.5078 439.356 19.7281 438.71 20.1343 438.185Z" fill="#5B88A5" stroke="#F4F4F2" stroke-width="5"/>
<path d="M206.083 438.39C216.778 438.39 225.592 447.387 225.592 458.668C225.592 469.949 216.778 478.945 206.083 478.945C195.389 478.945 186.575 469.949 186.575 458.668C186.575 447.387 195.389 438.39 206.083 438.39Z" fill="#5B88A5" stroke="#F4F4F2" stroke-width="5"/>
<path d="M50.02 438.39C60.7143 438.39 69.5288 447.387 69.5288 458.668C69.5287 469.949 60.7142 478.945 50.02 478.945C39.3259 478.945 30.5114 469.949 30.5112 458.668C30.5112 447.387 39.3258 438.39 50.02 438.39Z" fill="#5B88A5" stroke="#F4F4F2" stroke-width="5"/>
<path d="M228.593 418.288C221.59 418.288 223.091 418.288 223.091 418.288L211.086 391.886H221.09C229.593 391.886 244.099 389.298 244.099 404.829C244.099 420.359 235.596 418.288 228.593 418.288Z" fill="#5B88A5" stroke="#F4F4F2" stroke-width="5"/>
<path d="M29.5119 417.932C36.5148 417.932 35.0142 417.932 35.0142 417.932L47.019 391.53H37.015C28.5115 391.53 14.0056 388.942 14.0056 404.473C14.0056 420.003 22.5091 417.932 29.5119 417.932Z" fill="#5B88A5" stroke="#F4F4F2" stroke-width="5"/>
<path d="M427.028 197.706L450.66 177.401C451.324 176.83 451.837 176.07 452.124 175.242C465.907 135.446 456.356 130.453 423.806 138.455C423.064 138.637 422.359 138.995 421.776 139.488L336.723 211.417C335.702 212.281 335.069 213.519 334.967 214.853L332.962 240.995C332.77 243.503 334.471 245.764 336.934 246.273L356.481 250.319C359.63 250.971 362.567 248.524 362.493 245.308L362.283 236.197C362.209 232.962 365.179 230.51 368.341 231.195L377.308 233.137C380.512 233.831 383.505 231.306 383.362 228.031L382.958 218.835C382.806 215.376 386.13 212.814 389.436 213.84L396.863 216.146C399.865 217.079 402.973 215.042 403.316 211.917L404.555 200.631C404.877 197.701 407.651 195.683 410.539 196.281L422.756 198.81C424.274 199.124 425.852 198.716 427.028 197.706Z" fill="#5B88A5" stroke="#F4F4F2" stroke-width="5"/>
<path d="M555.241 115.254C555.241 77.2891 524.465 46.5119 486.5 46.5117C448.535 46.5117 417.758 77.289 417.758 115.254C417.758 144.714 436.292 169.852 462.345 179.632C469.856 182.452 477.995 183.995 486.5 183.995C494.267 183.995 501.729 182.708 508.686 180.337C535.767 171.108 555.241 145.452 555.241 115.254Z" fill="#5B88A5" stroke="#F4F4F2" stroke-width="5"/>
<ellipse cx="507.196" cy="99.395" rx="16.0065" ry="16.5659" fill="#F4F4F2"/>
<rect width="59.7371" height="42.4071" transform="matrix(0.766428 -0.64233 0.616226 0.787569 413.758 149.666)" fill="#5B88A5"/>
<rect width="59.7725" height="37.2948" transform="matrix(0.755032 -0.655688 0.629781 0.776773 420.671 143.764)" fill="#5B88A5"/>
<rect width="59.7725" height="37.2948" transform="matrix(0.755032 -0.655688 0.629781 0.776773 424.172 147.647)" fill="#5B88A5"/>
<path d="M29.5058 94.1653C29.8225 179.304 84.1803 211.009 137.915 184.613C138.296 184.426 138.761 184.492 139.066 184.787L216.588 259.64L251.274 224.675L171.039 147.989C170.753 147.716 170.656 147.299 170.787 146.927C175.623 133.181 177.336 120.348 175.572 107.678C172.931 88.7182 165.961 74.3039 153.563 62.1222C138.327 47.1522 129.091 42.8891 84.0444 40.0182C83.1449 39.9609 82.6113 41.0281 83.223 41.69L125.127 87.0297C125.387 87.3105 125.463 87.7148 125.325 88.0711L111.197 124.372C111.1 124.621 110.907 124.822 110.661 124.928L75.6766 140.014C75.2891 140.181 74.8385 140.087 74.5503 139.779L31.2206 93.4565C30.6039 92.7972 29.5024 93.2625 29.5058 94.1653Z" fill="#243A69"/>
<path d="M226 268.5L216.588 259.64M259.5 233L251.274 224.675M216.588 259.64L139.066 184.787C138.761 184.492 138.296 184.426 137.915 184.613C84.1803 211.009 29.8225 179.304 29.5058 94.1653C29.5024 93.2625 30.6039 92.7972 31.2206 93.4565L74.5503 139.779C74.8385 140.087 75.2891 140.181 75.6766 140.014L110.661 124.928C110.907 124.822 111.1 124.621 111.197 124.372L125.325 88.0711C125.463 87.7148 125.387 87.3105 125.127 87.0297L83.223 41.69C82.6113 41.0281 83.1449 39.9609 84.0444 40.0182C129.091 42.8891 138.327 47.1522 153.563 62.1222C165.961 74.3039 172.931 88.7182 175.572 107.678C177.336 120.348 175.623 133.181 170.787 146.927C170.656 147.299 170.753 147.716 171.039 147.989L251.274 224.675M216.588 259.64L251.274 224.675" stroke="#F4F4F2" stroke-width="5"/>
<rect width="7.31877" height="31.4018" transform="matrix(0.723472 0.690354 -0.66519 0.746674 246.437 223.587)" fill="#243A69"/>
<rect width="6.63773" height="31.4943" transform="matrix(0.719132 0.694873 -0.669831 0.742514 237.076 232.12)" fill="#243A69"/>
</svg>
